<svg width="23" height="29" viewBox="0 0 23 29" fill="none" xmlns="http://www.w3.org/2000/svg">
<path d="M21.25 7.08333H17V5.66667C17 4.16377 16.403 2.72243 15.3403 1.65973C14.2776 0.597022 12.8362 0 11.3333 0C9.83044 0 8.3891 0.597022 7.3264 1.65973C6.26369 2.72243 5.66667 4.16377 5.66667 5.66667V7.08333H1.41667C1.04094 7.08333 0.680609 7.23259 0.414932 7.49827C0.149256 7.76394 0 8.12428 0 8.5V24.0833C0 25.2105 0.447767 26.2915 1.2448 27.0885C2.04183 27.8856 3.12283 28.3333 4.25 28.3333H18.4167C19.5438 28.3333 20.6248 27.8856 21.4219 27.0885C22.2189 26.2915 22.6667 25.2105 22.6667 24.0833V8.5C22.6667 8.12428 22.5174 7.76394 22.2517 7.49827C21.9861 7.23259 21.6257 7.08333 21.25 7.08333ZM8.5 5.66667C8.5 4.91522 8.79851 4.19455 9.32987 3.6632C9.86122 3.13184 10.5819 2.83333 11.3333 2.83333C12.0848 2.83333 12.8054 3.13184 13.3368 3.6632C13.8682 4.19455 14.1667 4.91522 14.1667 5.66667V7.08333H8.5V5.66667ZM19.8333 24.0833C19.8333 24.4591 19.6841 24.8194 19.4184 25.0851C19.1527 25.3507 18.7924 25.5 18.4167 25.5H4.25C3.87428 25.5 3.51394 25.3507 3.24827 25.0851C2.98259 24.8194 2.83333 24.4591 2.83333 24.0833V9.91667H5.66667V11.3333C5.66667 11.7091 5.81592 12.0694 6.0816 12.3351C6.34728 12.6007 6.70761 12.75 7.08333 12.75C7.45906 12.75 7.81939 12.6007 8.08507 12.3351C8.35074 12.0694 8.5 11.7091 8.5 11.3333V9.91667H14.1667V11.3333C14.1667 11.7091 14.3159 12.0694 14.5816 12.3351C14.8473 12.6007 15.2076 12.75 15.5833 12.75C15.9591 12.75 16.3194 12.6007 16.5851 12.3351C16.8507 12.0694 17 11.7091 17 11.3333V9.91667H19.8333V24.0833Z" fill="#444444"/>
</svg>
