<svg width="34" height="35" viewBox="0 0 34 35" fill="none" xmlns="http://www.w3.org/2000/svg">
<path d="M26.9166 10.4166H22.6666V8.99998C22.6666 7.49709 22.0696 6.05575 21.0069 4.99304C19.9442 3.93034 18.5029 3.33331 17 3.33331C15.4971 3.33331 14.0557 3.93034 12.993 4.99304C11.9303 6.05575 11.3333 7.49709 11.3333 8.99998V10.4166H7.08329C6.70757 10.4166 6.34723 10.5659 6.08156 10.8316C5.81588 11.0973 5.66663 11.4576 5.66663 11.8333V27.4166C5.66663 28.5438 6.11439 29.6248 6.91142 30.4219C7.70845 31.2189 8.78946 31.6666 9.91663 31.6666H24.0833C25.2105 31.6666 26.2915 31.2189 27.0885 30.4219C27.8855 29.6248 28.3333 28.5438 28.3333 27.4166V11.8333C28.3333 11.4576 28.184 11.0973 27.9184 10.8316C27.6527 10.5659 27.2924 10.4166 26.9166 10.4166ZM14.1666 8.99998C14.1666 8.24853 14.4651 7.52786 14.9965 6.99651C15.5278 6.46516 16.2485 6.16665 17 6.16665C17.7514 6.16665 18.4721 6.46516 19.0034 6.99651C19.5348 7.52786 19.8333 8.24853 19.8333 8.99998V10.4166H14.1666V8.99998ZM25.5 27.4166C25.5 27.7924 25.3507 28.1527 25.085 28.4184C24.8194 28.6841 24.459 28.8333 24.0833 28.8333H9.91663C9.5409 28.8333 9.18057 28.6841 8.91489 28.4184C8.64922 28.1527 8.49996 27.7924 8.49996 27.4166V13.25H11.3333V14.6666C11.3333 15.0424 11.4825 15.4027 11.7482 15.6684C12.0139 15.9341 12.3742 16.0833 12.75 16.0833C13.1257 16.0833 13.486 15.9341 13.7517 15.6684C14.0174 15.4027 14.1666 15.0424 14.1666 14.6666V13.25H19.8333V14.6666C19.8333 15.0424 19.9825 15.4027 20.2482 15.6684C20.5139 15.9341 20.8742 16.0833 21.25 16.0833C21.6257 16.0833 21.986 15.9341 22.2517 15.6684C22.5174 15.4027 22.6666 15.0424 22.6666 14.6666V13.25H25.5V27.4166Z" fill="white"/>
</svg>
