<svg width="25" height="17" viewBox="0 0 25 17" fill="none" xmlns="http://www.w3.org/2000/svg">
<g clip-path="url(#clip0_514_641)">
<path d="M12.816 0.895997C12.048 1.248 11.392 1.664 10.848 2.144C10.304 2.592 9.856 3.072 9.504 3.584C9.184 4.096 8.944 4.608 8.784 5.12C8.624 5.632 8.544 6.096 8.544 6.512C8.544 6.704 8.608 6.864 8.736 6.992C8.864 7.12 9.008 7.184 9.168 7.184C9.808 7.248 10.368 7.424 10.848 7.712C11.328 7.968 11.712 8.304 12 8.72C12.32 9.136 12.56 9.6 12.72 10.112C12.88 10.592 12.96 11.088 12.96 11.6C12.96 12.176 12.832 12.752 12.576 13.328C12.352 13.872 12.016 14.368 11.568 14.816C11.152 15.264 10.624 15.632 9.984 15.92C9.376 16.176 8.704 16.304 7.968 16.304C6.464 16.304 5.264 15.808 4.368 14.816C3.472 13.824 2.992 12.592 2.928 11.12C2.864 9.936 2.992 8.768 3.312 7.616C3.664 6.464 4.208 5.392 4.944 4.4C5.712 3.376 6.672 2.48 7.824 1.712C9.008 0.911999 10.4 0.271998 12 -0.208003L12.816 0.895997ZM23.856 0.895997C23.088 1.248 22.432 1.664 21.888 2.144C21.344 2.592 20.896 3.072 20.544 3.584C20.224 4.096 19.984 4.608 19.824 5.12C19.664 5.632 19.584 6.096 19.584 6.512C19.584 6.704 19.648 6.864 19.776 6.992C19.904 7.12 20.048 7.184 20.208 7.184C20.848 7.248 21.408 7.424 21.888 7.712C22.368 7.968 22.752 8.304 23.04 8.72C23.36 9.136 23.6 9.6 23.76 10.112C23.92 10.592 24 11.088 24 11.6C24 12.176 23.872 12.752 23.616 13.328C23.392 13.872 23.056 14.368 22.608 14.816C22.192 15.264 21.664 15.632 21.024 15.92C20.416 16.176 19.744 16.304 19.008 16.304C17.504 16.304 16.304 15.808 15.408 14.816C14.512 13.824 14.032 12.592 13.968 11.12C13.904 9.936 14.032 8.768 14.352 7.616C14.704 6.464 15.248 5.392 15.984 4.4C16.752 3.376 17.712 2.48 18.864 1.712C20.048 0.911999 21.44 0.271998 23.04 -0.208003L23.856 0.895997Z" fill="#087C31"/>
</g>
<defs>
<clipPath id="clip0_514_641">
<rect width="25" height="17" fill="white"/>
</clipPath>
</defs>
</svg>
