<svg width="22" height="16" viewBox="0 0 22 16" fill="none" xmlns="http://www.w3.org/2000/svg">
<path d="M2.52008 1.82C3.40008 0.939998 4.44008 0.499998 5.64008 0.499998C6.84008 0.499998 7.88008 0.939998 8.76008 1.82C10.0001 3.06 10.3801 4.52 9.90008 6.2C9.10008 8.88 8.16008 11.62 7.08008 14.42C6.84008 15.06 6.36008 15.38 5.64008 15.38C4.92008 15.38 4.44008 15.06 4.20008 14.42C3.12008 11.62 2.18008 8.88 1.38008 6.2C0.900078 4.52 1.28008 3.06 2.52008 1.82ZM19.5001 1.82C20.7401 3.06 21.1201 4.52 20.6401 6.2C19.8401 8.88 18.9001 11.62 17.8201 14.42C17.5801 15.06 17.1001 15.38 16.3801 15.38C15.6601 15.38 15.1801 15.06 14.9401 14.42C14.0201 12.06 13.1001 9.32 12.1801 6.2C11.7001 4.48 12.0601 3.02 13.2601 1.82C14.1401 0.939998 15.1801 0.499998 16.3801 0.499998C17.5801 0.499998 18.6201 0.939998 19.5001 1.82Z" fill="#087C31"/>
</svg>
