<svg width="25" height="26" viewBox="0 0 25 26" fill="none" xmlns="http://www.w3.org/2000/svg">
<path d="M17.9249 16.3551L16.8135 16.3458L16.4227 15.9626C17.8631 14.3202 18.6648 12.2145 18.6815 10.0299C18.6967 8.22127 18.1752 6.44871 17.1829 4.93642C16.1907 3.42413 14.7723 2.24003 13.1071 1.53386C11.4419 0.827695 9.60469 0.631174 7.82781 0.96915C6.05092 1.30713 4.41416 2.16442 3.12451 3.43262C1.83485 4.70082 0.95022 6.32297 0.582485 8.09394C0.21475 9.86491 0.380425 11.7051 1.05856 13.382C1.7367 15.0588 2.89683 16.4968 4.39227 17.5143C5.8877 18.5317 7.65126 19.0829 9.45994 19.0981C11.7251 19.1171 13.8142 18.3045 15.4297 16.9392L15.8062 17.3363L15.7969 18.4477L22.7725 25.5272L24.8864 23.4485L17.9249 16.3551ZM9.48354 16.2843C5.98037 16.2549 3.17622 13.4033 3.2056 9.90014C3.23499 6.39696 6.08657 3.59281 9.58975 3.6222C13.0929 3.65158 15.8971 6.50317 15.8677 10.0063C15.8383 13.5095 12.9867 16.3137 9.48354 16.2843Z" fill="white"/>
</svg>
