<svg width="25" height="25" viewBox="0 0 25 25" fill="none" xmlns="http://www.w3.org/2000/svg">
<path d="M17.5336 15.547L16.4221 15.5377L16.0314 15.1546C17.4718 13.5121 18.2735 11.4064 18.2901 9.2219C18.3053 7.41322 17.7838 5.64066 16.7916 4.12837C15.7993 2.61608 14.3809 1.43199 12.7157 0.725818C11.0505 0.0196504 9.21334 -0.176871 7.43645 0.161106C5.65957 0.499082 4.02281 1.35638 2.73315 2.62458C1.44349 3.89278 0.558863 5.51493 0.191127 7.2859C-0.176608 9.05686 -0.0109323 10.8971 0.667203 12.5739C1.34534 14.2507 2.50548 15.6888 4.00091 16.7062C5.49634 17.7237 7.25991 18.2749 9.06859 18.29C11.3337 18.309 13.4229 17.4964 15.0383 16.1311L15.4149 16.5282L15.4055 17.6397L22.3811 24.7191L24.495 22.6404L17.5336 15.547ZM9.09219 15.4762C5.58901 15.4469 2.78486 12.5953 2.81425 9.09209C2.84363 5.58892 5.69522 2.78477 9.19839 2.81415C12.7016 2.84354 15.5057 5.69512 15.4763 9.1983C15.447 12.7015 12.5954 15.5056 9.09219 15.4762Z" fill="#444444"/>
</svg>
