<svg xmlns="http://www.w3.org/2000/svg" viewBox="0 0 4172.94 4957.05"><defs><style>.cls-1{fill:#f7f3d0;}</style></defs><g id="레이어_2" data-name="레이어 2"><g id="레이어_1-2" data-name="레이어 1"><path class="cls-1" d="M305.76,4354c165.58,0,165.58-550.25,331.16-550.25S774.16,4935.33,1054,4956.86c252.82,19.45,155.58-1439.16,486.2-1445.65,165.55-3.24,174.22,433.57,339.8,433.57s207.72-271.5,373.3-271.5,226.63,434.34,392.21,434.34,62.38-303.9,228-303.9,165.58,628,331.16,628,165.58-860.64,331.16-860.64,165.58,141.06,331.16,141.06c156.74,0,165.11-126.4,306-139.89V0H0V3808.35C140.66,3861.47,149.11,4354,305.76,4354Z"/></g></g></svg>